<?xml version="1.0" encoding="UTF-8"?>
<svg xmlns="http://www.w3.org/2000/svg" viewBox="0 0 24 24" fill="white">
  <path d="M12 0C5.373 0 0 5.373 0 12s5.373 12 12 12 12-5.373 12-12S18.627 0 12 0zm0 3c5.523 0 10 4.477 10 10s-4.477 10-10 10S2 18.523 2 13 6.477 3 12 3zm4.778 4.444c-.111 0-.222.022-.333.067L6.111 10.2c-.2.089-.333.289-.333.511s.133.422.333.511l2.556.911.911 2.556c.089.2.289.333.511.333s.422-.133.511-.333l2.689-10.334c.044-.111.067-.222.067-.333 0-.311-.256-.567-.567-.567zm-2.134 2.133L10.2 15.02l-.511-1.422-1.422-.511 5.444-2.134-.067.067z"/>
</svg>
